<svg width="18" height="19" viewBox="0 0 18 19" fill="none" xmlns="http://www.w3.org/2000/svg">
<g clip-path="url(#clip0_1_2679)">
<path d="M15 3.52631H3C2.175 3.52631 1.5075 4.19539 1.5075 5.01315L1.5 13.9342C1.5 14.752 2.175 15.421 3 15.421H15C15.825 15.421 16.5 14.752 16.5 13.9342V5.01315C16.5 4.19539 15.825 3.52631 15 3.52631ZM14.7 6.68585L9.3975 9.97177C9.1575 10.1205 8.8425 10.1205 8.6025 9.97177L3.3 6.68585C3.1125 6.5669 3 6.36617 3 6.15058C3 5.65249 3.5475 5.35512 3.975 5.61532L9 8.73025L14.025 5.61532C14.4525 5.35512 15 5.65249 15 6.15058C15 6.36617 14.8875 6.5669 14.7 6.68585Z" fill="#212121"/>
</g>
<defs>
<clipPath id="clip0_1_2679">
<rect width="18" height="17.8421" fill="white" transform="translate(0 0.552612)"/>
</clipPath>
</defs>
</svg>
