<svg width="18" height="19" viewBox="0 0 18 19" fill="none" xmlns="http://www.w3.org/2000/svg">
<path d="M13.996 11.6663L12.1579 11.464C11.7164 11.4152 11.2822 11.5617 10.971 11.8615L9.63945 13.1448C7.59144 12.1405 5.91251 10.5295 4.87041 8.54882L6.20922 7.2586C6.5204 6.95871 6.67237 6.54026 6.62171 6.11484L6.41185 4.35735C6.325 3.65296 5.70988 3.12292 4.97173 3.12292H3.71976C2.902 3.12292 2.22175 3.7785 2.2724 4.56657C2.65595 10.5225 7.59868 15.2789 13.7717 15.6485C14.5894 15.6973 15.2697 15.0418 15.2697 14.2537V13.0471C15.2769 12.3428 14.7269 11.75 13.996 11.6663V11.6663Z" fill="#212121"/>
</svg>
